<svg width="40" height="40" viewBox="0 0 40 40" fill="none" xmlns="http://www.w3.org/2000/svg">
<rect width="40" height="40" rx="20" fill="#EFF3F8"/>
<path fill-rule="evenodd" clip-rule="evenodd" d="M19.75 19.1665H22.75C23.53 19.1665 24.1667 19.8032 24.1667 20.5832V21.0832C24.1667 21.864 23.53 22.4998 22.75 22.4998H19.75C18.97 22.4998 18.3333 21.864 18.3333 21.0832V20.5832C18.3333 19.8032 18.97 19.1665 19.75 19.1665ZM22.75 21.6665C23.0708 21.6665 23.3333 21.4032 23.3333 21.0832V20.5832C23.3333 20.2632 23.0708 19.9998 22.75 19.9998H19.75C19.43 19.9998 19.1667 20.264 19.1667 20.5832V21.0832C19.1667 21.4032 19.43 21.6665 19.75 21.6665H22.75Z" fill="#056DAE"/>
<path fill-rule="evenodd" clip-rule="evenodd" d="M28.3333 15.8333H28.7917C29.4617 15.8333 30 16.3992 30 17.0833V27.0833C30 27.7667 29.4617 28.3333 28.7917 28.3333H14.5417C13.8717 28.3333 13.3333 27.7667 13.3333 27.0833V26.6667H12.875C12.205 26.6667 11.6667 26.1 11.6667 25.4167V25H11.2083C10.5383 25 10 24.4333 10 23.75V13.75C10 13.0667 10.5383 12.5 11.2083 12.5H25.4583C26.1283 12.5 26.6667 13.0658 26.6667 13.75V14.1667H27.125C27.795 14.1667 28.3333 14.7325 28.3333 15.4167V15.8333ZM28.7917 27.5C28.9925 27.5 29.1667 27.3158 29.1667 27.0833V17.0833C29.1667 16.85 28.9925 16.6667 28.7917 16.6667H28.3333V25.4167C28.3333 26.1 27.795 26.6667 27.125 26.6667H14.1667V27.0833C14.1667 27.3158 14.3408 27.5 14.5417 27.5H28.7917ZM12.5 25.4167V25H25.4583C26.1283 25 26.6667 24.4333 26.6667 23.75V15H27.125C27.3258 15 27.5 15.1833 27.5 15.4167V25.4167C27.5 25.6492 27.3258 25.8333 27.125 25.8333H13.795C13.788 25.8326 13.7815 25.8307 13.775 25.8288C13.7669 25.8265 13.7588 25.8242 13.75 25.8242C13.7412 25.8242 13.7332 25.8265 13.725 25.8288C13.7186 25.8307 13.712 25.8326 13.705 25.8333H12.875C12.6742 25.8333 12.5 25.6492 12.5 25.4167ZM10.8333 15.8333V23.75C10.8333 23.9825 11.0075 24.1667 11.2083 24.1667H25.4583C25.6592 24.1667 25.8333 23.9825 25.8333 23.75V15.8333H10.8333ZM11.2083 13.3333H25.4583C25.6592 13.3333 25.8333 13.5167 25.8333 13.75V15H10.8333V13.75C10.8333 13.5175 11.0075 13.3333 11.2083 13.3333Z" fill="#056DAE"/>
</svg>
