<svg viewBox="0 0 24 24" xmlns="http://www.w3.org/2000/svg"><path fill-rule="evenodd" clip-rule="evenodd" d="M1 16v3a4 4 0 0 0 3.875 3.998L5 23h3v1H5a5 5 0 0 1-5-5v-3h1Zm23 0v3a5 5 0 0 1-5 5h-3v-1h3a4 4 0 0 0 3.998-3.875L23 19v-3h1Zm-9.167.667a1 1 0 0 1 1 1V19a1 1 0 0 1-1 1H13.5a1 1 0 0 1-1-1v-1.333a1 1 0 0 1 1-1h1.333Zm4.167 0a1 1 0 0 1 1 1V19a1 1 0 0 1-1 1h-1.333a1 1 0 0 1-1-1v-1.333a1 1 0 0 1 1-1H19ZM9.5 12.5a2 2 0 0 1 2 2V18a2 2 0 0 1-2 2H6a2 2 0 0 1-2-2v-3.5a2 2 0 0 1 2-2h3.5Zm5.333 5.167H13.5V19h1.333v-1.333Zm4.167 0h-1.333V19H19v-1.333ZM9.5 13.5H6a1 1 0 0 0-.997.925L5 14.5V18a1 1 0 0 0 .925.997L6 19h3.5a1 1 0 0 0 .997-.925L10.5 18v-3.5a1 1 0 0 0-.925-.997L9.5 13.5Zm5.333-1a1 1 0 0 1 1 1v1.333a1 1 0 0 1-1 1H13.5a1 1 0 0 1-1-1V13.5a1 1 0 0 1 1-1h1.333Zm4.167 0a1 1 0 0 1 1 1v1.333a1 1 0 0 1-1 1h-1.333a1 1 0 0 1-1-1V13.5a1 1 0 0 1 1-1H19Zm-4.167 1H13.5v1.333h1.333V13.5Zm4.167 0h-1.333v1.333H19V13.5ZM9.5 4a2 2 0 0 1 2 2v3.5a2 2 0 0 1-2 2H6a2 2 0 0 1-2-2V6a2 2 0 0 1 2-2h3.5ZM18 4a2 2 0 0 1 2 2v3.5a2 2 0 0 1-2 2h-3.5a2 2 0 0 1-2-2V6a2 2 0 0 1 2-2H18ZM9.5 5H6a1 1 0 0 0-.997.925L5 6v3.5a1 1 0 0 0 .925.997L6 10.5h3.5a1 1 0 0 0 .997-.925L10.5 9.5V6a1 1 0 0 0-.925-.997L9.5 5ZM18 5h-3.5a1 1 0 0 0-.997.925L13.5 6v3.5a1 1 0 0 0 .925.997l.075.003H18a1 1 0 0 0 .997-.925L19 9.5V6a1 1 0 0 0-.925-.997L18 5ZM8 0v1H5a4 4 0 0 0-3.998 3.875L1 5v3H0V5a5 5 0 0 1 5-5h3Zm11 0a5 5 0 0 1 5 5v3h-1V5a4 4 0 0 0-3.875-3.998L19 1h-3V0h3Z" fill="#056DAE"/></svg>