<svg width="41" height="40" viewBox="0 0 41 40" fill="none" xmlns="http://www.w3.org/2000/svg">
<rect x="0.799988" width="40" height="40" rx="20" fill="#EFF3F8"/>
<path d="M13.2997 22.0833C13.2997 22.3133 13.4597 22.5 13.6572 22.5H22.9431C23.1406 22.5 23.2997 22.3133 23.2997 22.0833C23.2997 21.8533 23.1406 21.6667 22.9431 21.6667H13.6572C13.4597 21.6667 13.2997 21.8533 13.2997 22.0833Z" fill="#056DAE"/>
<path d="M13.6702 19.1667C13.4661 19.1667 13.3002 18.98 13.3002 18.75C13.3002 18.52 13.4661 18.3333 13.6702 18.3333H19.5961C19.8002 18.3333 19.9669 18.52 19.9669 18.75C19.9669 18.98 19.8002 19.1667 19.5961 19.1667H13.6702Z" fill="#056DAE"/>
<path fill-rule="evenodd" clip-rule="evenodd" d="M24.9667 17.5H26.6333C27.5533 17.5 28.3 18.2467 28.3 19.1667C28.3 20.0867 27.5533 20.8333 26.6333 20.8333H24.9667C24.0467 20.8333 23.3 20.0867 23.3 19.1667C23.3 18.2467 24.0467 17.5 24.9667 17.5ZM24.9667 20H26.6333C27.0942 20 27.4667 19.6267 27.4667 19.1667C27.4667 18.7067 27.0942 18.3333 26.6333 18.3333H24.9667C24.5058 18.3333 24.1333 18.7067 24.1333 19.1667C24.1333 19.6267 24.5058 20 24.9667 20Z" fill="#056DAE"/>
<path fill-rule="evenodd" clip-rule="evenodd" d="M30.0308 14.1667H11.5692C11.1442 14.1667 10.8 14.5687 10.8 15.0641V24.9359C10.8 25.4322 11.1442 25.8333 11.5692 25.8333H30.0308C30.4558 25.8333 30.8 25.4322 30.8 24.9359V15.0641C30.8 14.5687 30.4558 14.1667 30.0308 14.1667ZM11.6333 25H29.9667V15H11.6333V25Z" fill="#056DAE"/>
</svg>
